<?xml version="1.0" encoding="utf-8"?>
<!-- Generator: Adobe Illustrator 19.1.0, SVG Export Plug-In . SVG Version: 6.00 Build 0)  -->
<svg version="1.1" id="Layer_1" xmlns="http://www.w3.org/2000/svg" xmlns:xlink="http://www.w3.org/1999/xlink" x="0px" y="0px"
	 viewBox="0 0 500 500" style="enable-background:new 0 0 500 500;" xml:space="preserve">
<style type="text/css">
	.st0{fill:#4A4A4B;}
	.st1{fill:#FFFFFF;}
</style>
<g>
	<g>
		<g>
			<g>
				<g>
					<rect x="100.9" y="206.5" class="st0" width="103.8" height="93.9"/>
				</g>
				<g>
					<path class="st0" d="M205.3,300.9H100.4V206h104.8V300.9z M101.4,299.9h102.8V207H101.4V299.9z"/>
				</g>
			</g>
			<g>
				<g>
					<path class="st1" d="M260.6,165.9L90.7,206.5h10.3c0.4,0,87.9,0,87.9,0L260.6,165.9z"/>
				</g>
				<g>
					<path class="st0" d="M100.9,207H86.2L264,164.5L189,207h-0.1C188,207,101.3,207,100.9,207z M95.1,206h5.8c0.4,0,84,0,87.8,0
						l68.4-38.7L95.1,206z"/>
				</g>
			</g>
		</g>
		<g>
			<g>
				<rect x="101.1" y="205.4" class="st1" width="116.1" height="94.2"/>
			</g>
		</g>
	</g>
	<g>
		<g>
			<g>
				<g>
					<rect x="317.4" y="206.5" class="st0" width="103.8" height="93.9"/>
				</g>
				<g>
					<path class="st0" d="M421.7,300.9H316.9V206l104.8,0V300.9z M317.9,299.9h102.8V207l-102.8,0V299.9z"/>
				</g>
			</g>
			<g>
				<g>
					<path class="st1" d="M261.6,165.9l169.9,40.6h-10.3c-0.4,0-87.9,0-87.9,0L261.6,165.9z"/>
				</g>
				<g>
					<path class="st0" d="M435.9,207h-14.7c-0.4,0-87.1,0-87.9,0h-0.1l-75-42.5L435.9,207z M333.4,206c3.8,0,87.4,0,87.8,0h5.8
						L265,167.2L333.4,206z"/>
				</g>
			</g>
		</g>
		<g>
			<g>
				<rect x="305" y="205.4" class="st1" width="116.1" height="94.2"/>
			</g>
		</g>
	</g>
	<g>
		<rect x="91.4" y="204.8" class="st0" width="337.2" height="3.4"/>
	</g>
	<g>
		<g>
			<g>
				<path class="st0" d="M303.7,296.2h-86.3v-0.1h-14.1v-83.9h-17.6v-14.7h8.2l66.7-33.2l66.7,33.2h8.2v14.7h-17.7v83.9L303.7,296.2
					L303.7,296.2z M220.1,293.4h81v-0.1h14v-83.9h17.7v-9.1h-6.2l-0.3-0.1l-65.8-32.7l-66.1,32.9h-6.2v9.1h17.6v83.9L220.1,293.4
					L220.1,293.4z"/>
			</g>
		</g>
		<g>
			<g>
				<path class="st0" d="M326.1,302.3H195v-7.6h131.1V302.3z M197.7,299.5h125.8v-2H197.7V299.5z"/>
			</g>
		</g>
	</g>
	<g>
		<g>
			<g>
				<rect x="204.7" y="203.7" class="st1" width="111.7" height="90.9"/>
			</g>
		</g>
		<g>
			<g>
				<rect x="218.7" y="210.5" class="st0" width="83.7" height="84.1"/>
			</g>
		</g>
		<g>
			<g>
				<path class="st1" d="M260.6,259.2"/>
			</g>
		</g>
		<g>
			<g>
				<rect x="187" y="198.8" class="st1" width="147.2" height="11.9"/>
			</g>
		</g>
		<g>
			<g>
				<rect x="196.4" y="296" class="st1" width="128.4" height="4.8"/>
			</g>
			<g>
				<path class="st0" d="M325.1,301.1H196v-5.5h129.1V301.1z M196.7,300.4h127.8v-4.1H196.7V300.4z"/>
			</g>
		</g>
		<g>
			<g>
				<polygon class="st1" points="193.5,199.1 260.6,165.8 327.7,199.1 				"/>
			</g>
		</g>
		<g>
			<g>
				<rect x="204.6" y="210.4" class="st1" width="14.2" height="84.1"/>
			</g>
		</g>
		<g>
			<g>
				<rect x="302.2" y="210.4" class="st1" width="14.2" height="84.1"/>
			</g>
		</g>
		<g>
			<g>
				<rect x="269.7" y="210.4" class="st1" width="14.2" height="84.1"/>
			</g>
		</g>
		<g>
			<g>
				<rect x="237.1" y="210.4" class="st1" width="14.2" height="84.1"/>
			</g>
		</g>
		<g>
			<g>
				<ellipse class="st0" cx="260.6" cy="182.1" rx="9.5" ry="10"/>
			</g>
		</g>
		<g>
			<g>
				<ellipse class="st1" cx="260.6" cy="182.1" rx="7.5" ry="7.9"/>
			</g>
		</g>
	</g>
	<g>
		<rect x="185.6" y="209.3" class="st0" width="149.7" height="3.4"/>
	</g>
	<g>
		<rect x="194.8" y="293.6" class="st0" width="131.4" height="3.4"/>
	</g>
	<g>
		<rect x="202.5" y="211.1" class="st0" width="2.2" height="84.2"/>
	</g>
	<g>
		<rect x="315.7" y="211.1" class="st0" width="2.2" height="84.2"/>
	</g>
	<g>
		<rect x="193.4" y="293.6" class="st0" width="3.3" height="8.7"/>
	</g>
	<g>
		<rect x="324.5" y="293.6" class="st0" width="3.3" height="8.7"/>
	</g>
</g>
</svg>
