<?xml version="1.0" encoding="utf-8"?>
<!-- Generator: Adobe Illustrator 19.1.0, SVG Export Plug-In . SVG Version: 6.00 Build 0)  -->
<svg version="1.1" id="Layer_1" xmlns="http://www.w3.org/2000/svg" xmlns:xlink="http://www.w3.org/1999/xlink" x="0px" y="0px"
	 viewBox="0 0 500 500" style="enable-background:new 0 0 500 500;" xml:space="preserve">
<style type="text/css">
	.st0{fill:#4A4A4B;}
	.st1{fill:#EBECEC;}
</style>
<g>
	<path class="st0" d="M331,201.5c0.4-49-39-89-88-89.4c-49-0.4-89,39-89.4,88c-0.3,39.2,24.9,72.7,60.2,84.7
		c8.7,22.2,30.3,38.1,55.5,38.3h0c33,0.3,60.3-26.6,60.5-59.6l0.4-50.4C330.7,209.3,331,205.4,331,201.5z"/>
	<path class="st0" d="M330.3,200.3c0,0,16.5,19.6,19.6,30.6c3.1,11-37.1,5.8-37.1,5.8L330.3,200.3z"/>
	<path class="st1" d="M316,204.4l-4.8,0c-1.3,0-2.3-1-2.3-2.3l0.1-10.1c0-1.3,1-2.3,2.3-2.3l4.8,0c1.3,0,2.3,1,2.3,2.3l-0.1,10.1
		C318.3,203.4,317.2,204.4,316,204.4z"/>
</g>
<g>
	<g>
		<path class="st1" d="M261.2,178.1c0-18.4-14.9-33.4-33.4-33.4c-18.4,0-33.4,14.9-33.4,33.4c0,12.9,7.3,24.1,18,29.6v15.5
			c0,8.9,7.3,16.1,16.1,16.1c8.9,0,16.1-7.3,16.1-16.1v-16.4C254.7,201,261.2,190.3,261.2,178.1z"/>
	</g>
	<rect x="197.3" y="208.9" class="st0" width="64" height="5.9"/>
	<rect x="197.3" y="219.4" class="st0" width="64" height="4.9"/>
</g>
</svg>
