<?xml version="1.0" encoding="utf-8"?>
<!-- Generator: Adobe Illustrator 19.1.0, SVG Export Plug-In . SVG Version: 6.00 Build 0)  -->
<svg version="1.1" xmlns="http://www.w3.org/2000/svg" xmlns:xlink="http://www.w3.org/1999/xlink" x="0px" y="0px"
	 viewBox="0 0 500 500" style="enable-background:new 0 0 500 500;" xml:space="preserve">
<style type="text/css">
	.st0{fill:#4A4A4B;}
	.st1{fill:#EBECEC;}
	.st2{fill:#D5D8D8;}
	.st3{fill:#FFFFFF;}
</style>
<g id="Layer_1">
	<path class="st0" d="M319.4,185.1c-3.4-3.2-8.1-4.3-12.5-2.9c-13,4.5-31.7,1.6-46.4-12.2c-4.4-9.6-12.7-16.1-22.1-16.1l-1.7-0.4
		c-3.9-0.4-6.8-0.3-8.9-0.1c-33.6,1.8-54.2,21.6-62.2,42.7c-2.3,6.1,2.1,9.9,7.6,10.1c5.5,0.2,10.5-2.2,13.4-6.6
		c4.5-7.4,12.4-14.1,22.4-18.5c-0.2,1.5-0.1,3.1-0.1,4.7v49.8c0,4.4,2,8.3,5,10.9v16.2l-4.4-0.1c-4.6-0.1-8.6,3.5-8.7,8.1l-0.1,1.9
		c-0.1,4.6,3.9,8.4,8.5,8.5l4.8,0.1v36.5c0,4.6,2.9,8.1,7.5,8.1h1.9c4.6,0,8.6-3.5,8.6-8.1v-36.1l19.1,0.4c1.2,0,1.9-0.2,2.9-0.6
		c3.2-1.2,5-4.2,5-7.8v-27.7c3-2.7,5-6.4,5-10.4v-39.5c20,9.4,40.2,8,54.4,0C323.5,193.3,322.8,188.3,319.4,185.1z M232,250h9v13.5
		l-9-0.2V250z"/>
	<g>
		<path class="st1" d="M257.3,154.5c-6.8,14.8-13.6,29.8-20.3,44.6c-1,2.1-1.9,3.7-2.9,6.6c0.8,0.1,1.6,0.2,2.4,0.3
			c-2.7-15.5-5.3-32.3-7.9-48.3c-0.4-2.3-0.8-4.6-1.1-6.9c-0.5,0.5-0.9,0.5-1.4,1.4c10.8,1.4,21.3,2.9,32.2,4.3c1,0.1,1.4-2.8,0.4-3
			c-10.9-1.5-21.5-2.9-32.2-4.3c-0.8-0.1-1.6,0.8-1.4,1.6c2.6,16,5.3,32.2,7.9,48.2c0.4,2.3,0.8,4.6,1.1,6.9
			c0.2,1.2,1.9,1.5,2.4,0.3c6.8-14.8,13.5-29.6,20.3-44.3c1-2.1,1.9-4.2,2.9-6.4C260.2,154,257.9,153,257.3,154.5z"/>
	</g>
	<circle class="st0" cx="243.8" cy="134" r="19"/>
	<circle class="st1" cx="240.8" cy="162" r="2.4"/>
	<circle class="st1" cx="239.2" cy="178" r="2.4"/>
	<path class="st0" d="M227.9,153.5c0,0,7.1-0.6,13.1,0.6l-8.1,7.8L227.9,153.5z"/>
</g>
<g id="Layer_40">
	<path class="st2" d="M306,147.7"/>
	<path class="st3" d="M325.2,168.7"/>
	<g>
		<path class="st0" d="M347.1,123.2c2.2,0,3.6,2.5,2.3,4.3c-4.6,7-15.6,19.8-35.1,19.8c-18.9,0-29.8-12.1-34.6-19.2
			c-1.4-2.1,0.1-5,2.6-5H347.1z"/>
		<path class="st0" d="M290.3,137.8c4.4,0.1,19.4,20.6,0,34.4c0,0-5.5,3.8,7.3,3.8H333c0,0,6.6,0.7,6.6-3c0,0-28.9-19,0-37.8"/>
		<path class="st1" d="M321.1,128.3h-32.6c-0.7,0-1.3-0.6-1.3-1.3v-0.5c0-0.7,0.6-1.3,1.3-1.3h32.6c0.7,0,1.3,0.6,1.3,1.3v0.5
			C322.4,127.7,321.8,128.3,321.1,128.3z"/>
		<path class="st1" d="M334.4,133h-32.6c-0.7,0-1.3-0.6-1.3-1.3v-0.5c0-0.7,0.6-1.3,1.3-1.3h32.6c0.7,0,1.3,0.6,1.3,1.3v0.5
			C335.7,132.4,335.1,133,334.4,133z"/>
		<path class="st1" d="M304.3,148.4c2,5,2,10.7-0.1,15.7c-0.3,0.7-1.1,1.4-1.7,1.4l0,0c-0.6,0-0.8-0.5-0.5-1.3
			c2.1-5.1,2-10.9-0.1-16c-0.3-0.8-0.1-1.3,0.6-1.3l0,0C303.1,147,304,147.7,304.3,148.4z"/>
	</g>
	<g>
		<g>
			<path class="st0" d="M177.9,218.1h-9.4c-2.2,0-4-1.8-4-4v-7.6c0-2.2,1.8-4,4-4h9.4c2.2,0,4,1.8,4,4v7.6
				C181.9,216.3,180.1,218.1,177.9,218.1z M168.6,205.2c-0.7,0-1.3,0.6-1.3,1.3v7.6c0,0.7,0.6,1.3,1.3,1.3h9.4
				c0.7,0,1.3-0.6,1.3-1.3v-7.6c0-0.7-0.6-1.3-1.3-1.3H168.6z"/>
		</g>
		<g>
			<path class="st0" d="M194.5,247.2H152c-2.8,0-5-2.2-5-5v-27.4c0-2.8,2.2-5,5-5h42.5c2.8,0,5,2.2,5,5v27.4
				C199.5,245,197.2,247.2,194.5,247.2z"/>
		</g>
		<g>
			<path class="st1" d="M175.2,228.8h-3.9c-1.6,0-2.9-1.3-2.9-2.9v0c0-1.6,1.3-2.9,2.9-2.9h3.9c1.6,0,2.9,1.3,2.9,2.9v0
				C178.1,227.5,176.8,228.8,175.2,228.8z"/>
		</g>
		<g>
			<path class="st0" d="M174.3,225h-2.1c-0.9,0-1.6-0.7-1.6-1.6v0c0-0.9,0.7-1.6,1.6-1.6h2.1c0.9,0,1.6,0.7,1.6,1.6v0
				C175.9,224.3,175.2,225,174.3,225z"/>
		</g>
	</g>
</g>
</svg>
