<?xml version="1.0" encoding="utf-8"?>
<!-- Generator: Adobe Illustrator 19.1.0, SVG Export Plug-In . SVG Version: 6.00 Build 0)  -->
<svg version="1.1" id="Layer_1" xmlns="http://www.w3.org/2000/svg" xmlns:xlink="http://www.w3.org/1999/xlink" x="0px" y="0px"
	 viewBox="0 0 500 500" style="enable-background:new 0 0 500 500;" xml:space="preserve">
<style type="text/css">
	.st0{fill:#4A4A4B;}
	.st1{fill:none;}
</style>
<path class="st0" d="M154.1,248.7l16.9,4.3h20.8c0-5.1,1.7-9.7,4.5-13.4h-42.2V248.7z"/>
<path class="st0" d="M214.2,236.5c-9.1,0-16.5,7.4-16.5,16.4c0,9.1,7.4,16.4,16.5,16.4c9.1,0,16.4-7.3,16.4-16.4
	C230.6,243.9,223.2,236.5,214.2,236.5z M214.2,261.9c-5,0-9-4-9-8.9c0-4.9,4-8.9,9-8.9c4.9,0,9,4,9,8.9
	C223.1,257.9,219.1,261.9,214.2,261.9z"/>
<path class="st0" d="M328.7,236.5c-9.1,0-16.5,7.4-16.5,16.4c0,9.1,7.4,16.4,16.5,16.4c9,0,16.4-7.3,16.4-16.4
	C345.1,243.9,337.7,236.5,328.7,236.5z M328.7,261.9c-4.9,0-9-4-9-8.9c0-4.9,4-8.9,9-8.9c4.9,0,8.9,4,8.9,8.9
	C337.6,257.9,333.6,261.9,328.7,261.9z"/>
<path class="st0" d="M348,206.7l-11.9-35.8v-8.9h-37.4v77.6h-10.9c-1.6-6.5-3.4-12.2-4.5-15.7c4.7-5.4,7.7-12.3,7.7-20v-11.2
	c0-16.8-13.8-30.6-30.6-30.6h-75.7c-16.8,0-30.6,13.8-30.6,30.6v11.2c0,16.8,13.8,30.6,30.6,30.6h75.7c5.9,0,11.4-1.8,16.1-4.7
	c0.9,2.7,1.9,6.1,2.8,9.9H232c2.8,3.7,4.5,8.3,4.5,13.4h45.7c1.3,7.8,1.5,15.6,0.2,21.3c-2.4,10.5-16.6,21.6-24,28.7
	c-4.5,4.3-9.1,8.7-12.8,13.3h11c2.4-2.5,4.9-4.9,7.5-7.4c8.2-7.9,23.5-22.8,26.2-32.5c1.8-6.6,1.4-15.1,0.2-23.5h15.8
	c0-12.3,10-22.4,22.4-22.4c8.7,0,16.2,5,19.9,12.2c1.3,2.6,2.2,5.5,2.4,8.6c0,0.5,0.1,1,0.1,1.6H369v-37.3L348,206.7z M309.3,206.7
	v-26.9h20.9l8.9,26.9H309.3z"/>
<circle class="st0" cx="240" cy="312.3" r="3.7"/>
<circle class="st0" cx="234" cy="303.3" r="3.7"/>
<circle class="st0" cx="228" cy="295.3" r="3.7"/>
<circle class="st0" cx="227" cy="312.3" r="3.7"/>
<circle class="st0" cx="221" cy="303.3" r="3.7"/>
<circle class="st0" cx="215" cy="295.3" r="3.7"/>
<circle class="st1" cx="275" cy="312.3" r="3.7"/>
<circle class="st0" cx="283" cy="303.3" r="3.7"/>
<circle class="st0" cx="289" cy="295.3" r="3.7"/>
<circle class="st0" cx="290" cy="312.3" r="3.7"/>
<circle class="st0" cx="296" cy="303.3" r="3.7"/>
<circle class="st0" cx="302" cy="295.3" r="3.7"/>
</svg>
