<?xml version="1.0" encoding="UTF-8" standalone="no"?>
<svg width="90px" height="139px" viewBox="0 0 90 139" version="1.1" xmlns="http://www.w3.org/2000/svg" xmlns:xlink="http://www.w3.org/1999/xlink" xmlns:sketch="http://www.bohemiancoding.com/sketch/ns">
    <!-- Generator: Sketch 3.3.3 (12081) - http://www.bohemiancoding.com/sketch -->
    <title>Fill 3</title>
    <desc>Created with Sketch.</desc>
    <defs></defs>
    <g id="Page-1" stroke="none" stroke-width="1" fill="none" fill-rule="evenodd" sketch:type="MSPage">
        <g id="connect" sketch:type="MSLayerGroup" transform="translate(-140.000000, -119.000000)" fill="#FFFFFF">
            <path d="M200.843,181.908 L187.283,181.908 L187.283,167.387 C188.387,166.595 189.163,165.348 189.163,163.888 C189.163,161.483 187.187,159.513 184.788,159.513 C182.356,159.513 180.402,161.483 180.402,163.888 C180.402,165.364 181.167,166.595 182.281,167.402 L182.281,181.908 L168.732,181.908 C166.491,181.908 164.676,183.713 164.676,185.953 L164.676,253.914 C164.676,256.134 166.491,257.96 168.732,257.96 L200.843,257.96 C203.084,257.96 204.9,256.134 204.9,253.914 L204.9,185.953 C204.9,183.713 203.084,181.908 200.843,181.908 L200.843,181.908 Z M199.022,218.357 C199.022,220.576 197.201,222.403 194.982,222.403 L174.594,222.403 C172.342,222.403 170.548,220.576 170.548,218.357 L170.548,194.369 C170.548,192.129 172.342,190.324 174.594,190.324 L194.982,190.324 C197.201,190.324 199.022,192.129 199.022,194.369 L199.022,218.357 L199.022,218.357 Z M229.493,163.973 C229.493,165.327 228.388,166.468 227.029,166.468 C225.649,166.468 224.555,165.327 224.555,163.973 C224.502,141.992 206.737,124.237 184.788,124.205 C162.828,124.237 145.062,141.992 145.01,163.973 C145.01,165.327 143.916,166.468 142.536,166.468 C141.176,166.468 140.072,165.327 140.072,163.973 C140.072,139.284 160.088,119.257 184.788,119.257 C209.476,119.257 229.493,139.284 229.493,163.973 L229.493,163.973 Z M216.666,163.973 C216.666,165.327 215.561,166.468 214.191,166.468 C212.832,166.468 211.727,165.327 211.727,163.973 C211.674,149.074 199.675,137.081 184.788,137.048 C169.9,137.081 157.858,149.074 157.848,163.973 C157.848,165.327 156.754,166.468 155.373,166.468 C154.004,166.468 152.91,165.327 152.91,163.973 C152.91,146.361 167.171,132.111 184.788,132.058 C202.404,132.111 216.666,146.361 216.666,163.973 L216.666,163.973 Z M205.484,163.973 C205.484,165.327 204.379,166.468 203.009,166.468 C201.64,166.468 200.536,165.327 200.536,163.973 C200.514,155.286 193.495,148.241 184.788,148.204 C176.091,148.241 169.05,155.286 169.029,163.973 C169.029,165.327 167.925,166.468 166.555,166.468 C165.185,166.468 164.081,165.327 164.081,163.973 C164.081,152.531 173.362,143.276 184.788,143.276 C196.203,143.276 205.462,152.531 205.484,163.973 L205.484,163.973 Z" id="Fill-3" sketch:type="MSShapeGroup"></path>
        </g>
    </g>
</svg>