<?xml version="1.0" encoding="UTF-8" standalone="no"?>
<svg width="161px" height="185px" viewBox="0 0 161 185" version="1.1" xmlns="http://www.w3.org/2000/svg" xmlns:xlink="http://www.w3.org/1999/xlink" xmlns:sketch="http://www.bohemiancoding.com/sketch/ns">
    <!-- Generator: Sketch 3.3.3 (12081) - http://www.bohemiancoding.com/sketch -->
    <title>Group</title>
    <desc>Created with Sketch.</desc>
    <defs></defs>
    <g id="Page-1" stroke="none" stroke-width="1" fill="none" fill-rule="evenodd" sketch:type="MSPage">
        <g id="implement" sketch:type="MSLayerGroup" transform="translate(-107.000000, -101.000000)">
            <g id="Group" transform="translate(108.000000, 101.000000)" sketch:type="MSShapeGroup">
                <path d="M144.984,63.9 C144.984,63.9 156.938,78.04 159.148,86.004 C161.357,93.968 132.295,90.198 132.295,90.198 L144.984,63.9" id="Fill-7" fill="#FFFFFF"></path>
                <path d="M144.913,73.17 L144.634,109.604 C144.452,133.486 124.762,152.876 100.88,152.694 C82.654,152.554 67.056,141.049 60.765,124.994 C35.294,116.341 17.048,92.147 17.265,63.774 C17.536,28.351 46.472,-0.146 81.896,0.125 C117.319,0.396 145.816,29.332 145.545,64.755 C145.523,67.611 145.296,70.416 144.913,73.17 L144.913,73.17 Z M136.314,65.647 L136.376,57.479 C136.382,56.798 135.829,56.237 135.149,56.232 L130.812,56.199 C130.131,56.194 129.57,56.747 129.565,57.427 L129.503,65.595 C129.497,66.275 130.05,66.837 130.731,66.842 L135.067,66.875 C135.748,66.88 136.309,66.328 136.314,65.647 L136.314,65.647 Z" id="Fill-8" fill="#FFFFFF"></path>
                <path d="M91.505,137.782 L87.111,137.782 C86.389,134.947 85.26,132.275 83.793,129.83 L87.09,126.532 C88.979,124.643 88.979,121.581 87.09,119.693 L83.473,116.076 C81.584,114.187 78.522,114.187 76.634,116.076 L73.289,119.42 C70.903,118.016 68.308,116.929 65.557,116.228 L65.557,111.242 C65.557,108.572 63.392,106.406 60.721,106.406 L55.605,106.406 C52.935,106.406 50.77,108.572 50.77,111.242 L50.77,116.228 C48.078,116.914 45.537,117.97 43.193,119.331 L39.52,115.657 C37.631,113.769 34.569,113.769 32.68,115.657 L29.063,119.275 C27.175,121.163 27.175,124.225 29.063,126.114 L32.624,129.675 C31.216,131.991 30.121,134.517 29.381,137.19 L24.23,137.19 C21.559,137.19 19.394,139.355 19.394,142.026 L19.394,147.142 C19.394,149.813 21.559,151.978 24.23,151.978 L29.08,151.978 C29.724,154.743 30.75,157.36 32.103,159.77 L28.645,163.228 C26.756,165.117 26.756,168.178 28.645,170.067 L32.262,173.684 C34.151,175.573 37.213,175.573 39.101,173.684 L42.302,170.484 C44.717,172.001 47.364,173.179 50.178,173.959 L50.178,178.517 C50.178,181.188 52.343,183.353 55.014,183.353 L60.13,183.353 C62.801,183.353 64.966,181.188 64.966,178.517 L64.966,174.259 C67.875,173.582 70.62,172.48 73.134,171.021 L76.216,174.103 C78.104,175.991 81.166,175.991 83.055,174.103 L86.672,170.485 C88.561,168.597 88.561,165.535 86.672,163.646 L83.702,160.677 C85.215,158.19 86.373,155.464 87.111,152.569 L91.505,152.569 C94.176,152.569 96.341,150.404 96.341,147.734 L96.341,142.618 C96.341,139.947 94.176,137.782 91.505,137.782 L91.505,137.782 Z M58.163,157.597 C51.303,157.597 45.742,152.036 45.742,145.176 C45.742,138.315 51.303,132.754 58.163,132.754 C65.024,132.754 70.585,138.315 70.585,145.176 C70.585,152.036 65.024,157.597 58.163,157.597 L58.163,157.597 Z" id="Fill-9" fill="#FFFFFF"></path>
                <path d="M60.13,184.484 L55.013,184.484 C51.724,184.484 49.047,181.807 49.047,178.517 L49.047,174.805 C46.748,174.099 44.544,173.127 42.475,171.91 L39.9,174.483 C37.645,176.736 33.715,176.736 31.465,174.483 L27.846,170.866 C25.521,168.54 25.521,164.755 27.846,162.43 L30.708,159.568 C29.631,157.516 28.788,155.349 28.197,153.108 L24.23,153.108 C20.94,153.108 18.264,150.431 18.264,147.141 L18.264,142.026 C18.264,138.737 20.94,136.061 24.23,136.061 L28.532,136.061 C29.199,133.891 30.095,131.81 31.207,129.855 L28.265,126.912 C25.94,124.587 25.94,120.802 28.265,118.476 L31.882,114.859 C34.207,112.533 37.993,112.533 40.319,114.859 L43.386,117.927 C45.38,116.841 47.479,115.982 49.641,115.364 L49.641,111.242 C49.641,107.953 52.317,105.276 55.605,105.276 L60.721,105.276 C64.011,105.276 66.687,107.953 66.687,111.242 L66.687,115.364 C68.909,115.998 71.058,116.886 73.099,118.013 L75.835,115.277 C78.161,112.951 81.947,112.951 84.272,115.277 L87.889,118.894 C90.214,121.22 90.214,125.005 87.889,127.33 L85.208,130.014 C86.388,132.115 87.315,134.341 87.975,136.652 L91.505,136.652 C94.795,136.652 97.471,139.329 97.471,142.618 L97.471,147.734 C97.471,151.022 94.795,153.699 91.505,153.699 L87.975,153.699 C87.3,156.071 86.342,158.35 85.12,160.496 L87.472,162.848 C89.797,165.173 89.797,168.958 87.472,171.284 L83.853,174.901 C81.528,177.229 77.741,177.227 75.416,174.901 L72.94,172.426 C70.772,173.603 68.477,174.514 66.096,175.143 L66.096,178.517 C66.096,181.807 63.42,184.484 60.13,184.484 L60.13,184.484 Z M42.141,169.049 L42.903,169.528 C45.252,171.004 47.801,172.128 50.479,172.87 L51.307,173.1 L51.307,178.517 C51.307,180.562 52.97,182.224 55.013,182.224 L60.13,182.224 C62.173,182.224 63.837,180.562 63.837,178.517 L63.837,173.362 L64.711,173.159 C67.466,172.517 70.11,171.469 72.568,170.044 L73.32,169.608 L77.013,173.304 C78.412,174.705 80.857,174.705 82.256,173.304 L85.874,169.686 C86.574,168.986 86.96,168.056 86.96,167.065 C86.96,166.076 86.574,165.146 85.874,164.445 L82.278,160.848 L82.737,160.09 C84.213,157.664 85.316,155.039 86.015,152.29 L86.232,151.44 L91.505,151.44 C93.548,151.44 95.212,149.777 95.212,147.734 L95.212,142.618 C95.212,140.574 93.548,138.912 91.505,138.912 L86.232,138.912 L86.015,138.061 C85.331,135.372 84.257,132.799 82.825,130.412 L82.37,129.656 L86.291,125.733 C86.991,125.032 87.377,124.102 87.377,123.113 C87.377,122.122 86.991,121.192 86.291,120.492 L82.675,116.874 C81.228,115.429 78.88,115.429 77.433,116.874 L73.47,120.838 L72.715,120.393 C70.379,119.018 67.877,117.985 65.28,117.323 L64.428,117.107 L64.428,111.242 C64.428,109.198 62.765,107.536 60.721,107.536 L55.605,107.536 C53.562,107.536 51.9,109.198 51.9,111.242 L51.9,117.107 L51.049,117.323 C48.509,117.97 46.058,118.975 43.761,120.307 L43.011,120.744 L38.722,116.456 C37.323,115.055 34.878,115.055 33.479,116.456 L29.863,120.074 C29.163,120.774 28.777,121.704 28.777,122.695 C28.777,123.684 29.163,124.614 29.863,125.315 L34.048,129.504 L33.589,130.262 C32.228,132.502 31.178,134.935 30.468,137.493 L30.238,138.32 L24.23,138.32 C22.187,138.32 20.523,139.983 20.523,142.026 L20.523,147.141 C20.523,149.186 22.187,150.848 24.23,150.848 L29.976,150.848 L30.181,151.722 C30.792,154.347 31.769,156.868 33.089,159.218 L33.506,159.965 L29.444,164.027 C27.998,165.472 27.998,167.823 29.444,169.268 L33.062,172.886 C34.461,174.289 36.903,174.285 38.302,172.886 L42.141,169.049 L42.141,169.049 Z M58.164,158.727 C50.691,158.727 44.613,152.648 44.613,145.176 C44.613,137.704 50.691,131.624 58.164,131.624 C65.635,131.624 71.714,137.704 71.714,145.176 C71.714,152.648 65.635,158.727 58.164,158.727 L58.164,158.727 Z M58.164,133.883 C51.938,133.883 46.872,138.949 46.872,145.176 C46.872,151.402 51.938,156.468 58.164,156.468 C64.391,156.468 69.454,151.402 69.454,145.176 C69.454,138.949 64.391,133.883 58.164,133.883 L58.164,133.883 Z" id="Fill-10" fill="#FFFFFF"></path>
                <path d="M60.13,184.484 L55.013,184.484 C51.724,184.484 49.047,181.807 49.047,178.517 L49.047,174.805 C46.748,174.099 44.544,173.127 42.475,171.91 L39.9,174.483 C37.645,176.736 33.715,176.736 31.465,174.483 L27.846,170.866 C25.521,168.54 25.521,164.755 27.846,162.43 L30.708,159.568 C29.631,157.516 28.788,155.349 28.197,153.108 L24.23,153.108 C20.94,153.108 18.264,150.431 18.264,147.141 L18.264,142.026 C18.264,138.737 20.94,136.061 24.23,136.061 L28.532,136.061 C29.199,133.891 30.095,131.81 31.207,129.855 L28.265,126.912 C25.94,124.587 25.94,120.802 28.265,118.476 L31.882,114.859 C34.207,112.533 37.993,112.533 40.319,114.859 L43.386,117.927 C45.38,116.841 47.479,115.982 49.641,115.364 L49.641,111.242 C49.641,107.953 52.317,105.276 55.605,105.276 L60.721,105.276 C64.011,105.276 66.687,107.953 66.687,111.242 L66.687,115.364 C68.909,115.998 71.058,116.886 73.099,118.013 L75.835,115.277 C78.161,112.951 81.947,112.951 84.272,115.277 L87.889,118.894 C90.214,121.22 90.214,125.005 87.889,127.33 L85.208,130.014 C86.388,132.115 87.315,134.341 87.975,136.652 L91.505,136.652 C94.795,136.652 97.471,139.329 97.471,142.618 L97.471,147.734 C97.471,151.022 94.795,153.699 91.505,153.699 L87.975,153.699 C87.3,156.071 86.342,158.35 85.12,160.496 L87.472,162.848 C89.797,165.173 89.797,168.958 87.472,171.284 L83.853,174.901 C81.528,177.229 77.741,177.227 75.416,174.901 L72.94,172.426 C70.772,173.603 68.477,174.514 66.096,175.143 L66.096,178.517 C66.096,181.807 63.42,184.484 60.13,184.484 L60.13,184.484 Z M42.141,169.049 L42.903,169.528 C45.252,171.004 47.801,172.128 50.479,172.87 L51.307,173.1 L51.307,178.517 C51.307,180.562 52.97,182.224 55.013,182.224 L60.13,182.224 C62.173,182.224 63.837,180.562 63.837,178.517 L63.837,173.362 L64.711,173.159 C67.466,172.517 70.11,171.469 72.568,170.044 L73.32,169.608 L77.013,173.304 C78.412,174.705 80.857,174.705 82.256,173.304 L85.874,169.686 C86.574,168.986 86.96,168.056 86.96,167.065 C86.96,166.076 86.574,165.146 85.874,164.445 L82.278,160.848 L82.737,160.09 C84.213,157.664 85.316,155.039 86.015,152.29 L86.232,151.44 L91.505,151.44 C93.548,151.44 95.212,149.777 95.212,147.734 L95.212,142.618 C95.212,140.574 93.548,138.912 91.505,138.912 L86.232,138.912 L86.015,138.061 C85.331,135.372 84.257,132.799 82.825,130.412 L82.37,129.656 L86.291,125.733 C86.991,125.032 87.377,124.102 87.377,123.113 C87.377,122.122 86.991,121.192 86.291,120.492 L82.675,116.874 C81.228,115.429 78.88,115.429 77.433,116.874 L73.47,120.838 L72.715,120.393 C70.379,119.018 67.877,117.985 65.28,117.323 L64.428,117.107 L64.428,111.242 C64.428,109.198 62.765,107.536 60.721,107.536 L55.605,107.536 C53.562,107.536 51.9,109.198 51.9,111.242 L51.9,117.107 L51.049,117.323 C48.509,117.97 46.058,118.975 43.761,120.307 L43.011,120.744 L38.722,116.456 C37.323,115.055 34.878,115.055 33.479,116.456 L29.863,120.074 C29.163,120.774 28.777,121.704 28.777,122.695 C28.777,123.684 29.163,124.614 29.863,125.315 L34.048,129.504 L33.589,130.262 C32.228,132.502 31.178,134.935 30.468,137.493 L30.238,138.32 L24.23,138.32 C22.187,138.32 20.523,139.983 20.523,142.026 L20.523,147.141 C20.523,149.186 22.187,150.848 24.23,150.848 L29.976,150.848 L30.181,151.722 C30.792,154.347 31.769,156.868 33.089,159.218 L33.506,159.965 L29.444,164.027 C27.998,165.472 27.998,167.823 29.444,169.268 L33.062,172.886 C34.461,174.289 36.903,174.285 38.302,172.886 L42.141,169.049 L42.141,169.049 Z M58.164,158.727 C50.691,158.727 44.613,152.648 44.613,145.176 C44.613,137.704 50.691,131.624 58.164,131.624 C65.635,131.624 71.714,137.704 71.714,145.176 C71.714,152.648 65.635,158.727 58.164,158.727 L58.164,158.727 Z M58.164,133.883 C51.938,133.883 46.872,138.949 46.872,145.176 C46.872,151.402 51.938,156.468 58.164,156.468 C64.391,156.468 69.454,151.402 69.454,145.176 C69.454,138.949 64.391,133.883 58.164,133.883 L58.164,133.883 Z" id="Fill-10-Copy" fill="#18A9E1"></path>
                <path d="M51.1671504,90.7418195 L48.2031504,89.8208195 C48.3101504,87.7578195 48.1081504,85.7188195 47.6311504,83.7618195 L50.5461504,82.2278195 C52.2161504,81.3488195 52.8571504,79.2838195 51.9791504,77.6138195 L50.2971504,74.4158195 C49.4181504,72.7468195 47.3531504,72.1048195 45.6831504,72.9828195 L42.7261504,74.5388195 C41.4111504,73.0918195 39.8881504,71.8148195 38.1791504,70.7658195 L39.2231504,67.4018195 C39.7831504,65.6008195 38.7761504,63.6858195 36.9741504,63.1268195 L33.5231504,62.0548195 C31.7211504,61.4948195 29.8071504,62.5018195 29.2481504,64.3038195 L28.2031504,67.6678195 C26.2441504,67.5658195 24.3081504,67.7458195 22.4421504,68.1728195 L20.7341504,64.9248195 C19.8551504,63.2558195 17.7901504,62.6138195 16.1201504,63.4928195 L12.9221504,65.1748195 C11.2521504,66.0528195 10.6111504,68.1188195 11.4891504,69.7888195 L13.1451504,72.9368195 C11.7101504,74.2038195 10.4421504,75.6788195 9.38315039,77.3268195 L5.90815039,76.2478195 C4.10615039,75.6878195 2.19215039,76.6958195 1.63315039,78.4968195 L0.561150393,81.9478195 C0.00115039326,83.7498195 1.00815039,85.6638195 2.81015039,86.2238195 L6.08215039,87.2398195 C5.93715039,89.2398195 6.08015039,91.2198195 6.48815039,93.1298195 L3.43115039,94.7378195 C1.76215039,95.6158195 1.12015039,97.6818195 1.99815039,99.3508195 L3.68115039,102.549819 C4.55915039,104.218819 6.62515039,104.860819 8.29415039,103.981819 L11.1241504,102.493819 C12.4351504,104.022819 13.9741504,105.372819 15.7091504,106.487819 L14.7541504,109.562819 C14.1941504,111.364819 15.2011504,113.278819 17.0031504,113.838819 L20.4541504,114.910819 C22.2561504,115.469819 24.1701504,114.462819 24.7301504,112.661819 L25.6221504,109.788819 C27.7261504,109.940819 29.8091504,109.772819 31.8101504,109.315819 L33.2441504,112.039819 C34.1221504,113.709819 36.1881504,114.351819 37.8571504,113.472819 L41.0561504,111.790819 C42.7251504,110.911819 43.3671504,108.846819 42.4881504,107.176819 L41.1071504,104.551819 C42.6491504,103.190819 44.0011504,101.594819 45.1051504,99.7968195 L48.0691504,100.717819 C49.8711504,101.276819 51.7851504,100.269819 52.3451504,98.4678195 L53.4171504,95.0178195 C53.9761504,93.2158195 52.9691504,91.3008195 51.1671504,90.7418195 L51.1671504,90.7418195 Z M24.5241504,97.1238195 C19.8961504,95.6868195 17.3091504,90.7698195 18.7471504,86.1418195 C20.1841504,81.5138195 25.1011504,78.9268195 29.7291504,80.3648195 C34.3561504,81.8018195 36.9431504,86.7188195 35.5061504,91.3468195 C34.0681504,95.9748195 29.1521504,98.5608195 24.5241504,97.1238195 L24.5241504,97.1238195 Z" id="Fill-11-Copy" stroke="#18A9E1" fill="#FFFFFF"></path>
                <path d="M22.595,115.731 C22.149,115.731 21.697,115.665 21.249,115.526 L17.798,114.455 C16.64,114.094 15.689,113.304 15.124,112.23 C14.559,111.154 14.447,109.924 14.806,108.765 L15.513,106.494 C14.237,105.604 13.061,104.581 12.002,103.441 L9.95,104.519 C8.878,105.084 7.653,105.199 6.486,104.837 C5.328,104.478 4.377,103.688 3.812,102.613 L2.131,99.414 C1.564,98.341 1.451,97.109 1.811,95.95 C2.171,94.791 2.96,93.841 4.035,93.275 L6.352,92.057 C6.098,90.585 5.992,89.09 6.038,87.595 L3.605,86.84 C2.446,86.479 1.495,85.689 0.931,84.615 C0.366,83.539 0.253,82.309 0.613,81.15 L1.685,77.699 C2.045,76.54 2.835,75.589 3.909,75.025 C4.986,74.459 6.215,74.346 7.375,74.706 L10.043,75.535 C10.879,74.34 11.826,73.233 12.871,72.231 L11.62,69.852 C10.453,67.632 11.309,64.879 13.529,63.712 L16.726,62.03 C17.801,61.466 19.032,61.354 20.19,61.711 C21.351,62.072 22.299,62.862 22.864,63.936 L24.177,66.431 C25.611,66.162 27.054,66.029 28.51,66.049 L29.3,63.506 C29.66,62.347 30.45,61.397 31.524,60.831 C32.601,60.267 33.83,60.156 34.991,60.513 L38.441,61.584 C40.835,62.33 42.177,64.882 41.433,67.275 L40.643,69.818 C41.881,70.648 43.035,71.606 44.09,72.677 L46.289,71.521 C47.36,70.956 48.593,70.842 49.753,71.202 C50.912,71.563 51.863,72.353 52.428,73.427 L54.109,76.626 C54.674,77.7 54.788,78.93 54.429,80.089 C54.069,81.25 53.277,82.2 52.203,82.765 L50.051,83.897 C50.36,85.423 50.508,86.977 50.49,88.534 L52.633,89.2 C55.025,89.943 56.368,92.496 55.627,94.889 L54.555,98.341 C53.811,100.731 51.271,102.083 48.864,101.334 L46.722,100.667 C45.831,101.997 44.798,103.224 43.642,104.332 L44.619,106.188 C45.184,107.263 45.297,108.493 44.937,109.653 C44.577,110.812 43.785,111.762 42.711,112.327 L39.514,114.009 C38.439,114.574 37.21,114.687 36.05,114.328 C34.891,113.968 33.94,113.179 33.375,112.104 L32.338,110.133 C30.767,110.427 29.172,110.545 27.57,110.5 L26.939,112.533 C26.335,114.48 24.534,115.731 22.595,115.731 L22.595,115.731 Z M12.527,100.612 L13.114,101.296 C14.37,102.762 15.83,104.033 17.452,105.075 L18.176,105.54 L16.964,109.435 C16.783,110.018 16.839,110.637 17.123,111.178 C17.408,111.719 17.887,112.116 18.469,112.297 L21.92,113.368 C23.118,113.738 24.409,113.067 24.782,111.864 L25.938,108.135 L26.834,108.2 C28.793,108.342 30.77,108.191 32.689,107.752 L33.537,107.558 L35.374,111.052 C35.659,111.592 36.136,111.989 36.72,112.17 C37.305,112.355 37.923,112.295 38.463,112.01 L41.661,110.328 C42.201,110.043 42.598,109.566 42.779,108.982 C42.96,108.4 42.905,107.781 42.62,107.24 L40.826,103.83 L41.491,103.243 C42.969,101.937 44.242,100.422 45.274,98.742 L45.733,97.994 L49.535,99.176 C50.74,99.549 52.022,98.873 52.397,97.67 L53.469,94.219 C53.842,93.016 53.167,91.731 51.962,91.358 L48.16,90.177 L48.207,89.301 C48.306,87.373 48.123,85.443 47.664,83.567 L47.454,82.709 L51.152,80.766 C51.693,80.481 52.09,80.003 52.271,79.421 C52.452,78.837 52.395,78.218 52.11,77.678 L50.429,74.479 C50.144,73.939 49.665,73.541 49.083,73.36 C48.502,73.182 47.885,73.234 47.342,73.52 L43.611,75.482 L43.022,74.836 C41.753,73.442 40.306,72.24 38.719,71.266 L37.971,70.806 L39.275,66.605 C39.651,65.4 38.975,64.117 37.771,63.742 L34.32,62.671 C33.744,62.489 33.115,62.546 32.577,62.831 C32.036,63.116 31.639,63.592 31.458,64.176 L30.152,68.379 L29.276,68.334 C27.454,68.235 25.624,68.4 23.824,68.811 L22.977,69.006 L20.865,64.989 C20.581,64.448 20.104,64.05 19.519,63.869 C18.939,63.688 18.319,63.748 17.776,64.029 L14.579,65.712 C14.039,65.996 13.642,66.474 13.461,67.057 C13.28,67.64 13.335,68.259 13.619,68.799 L15.689,72.733 L15.025,73.321 C13.657,74.528 12.459,75.926 11.464,77.475 L10.998,78.197 L6.705,76.864 C6.124,76.683 5.504,76.741 4.962,77.024 C4.421,77.308 4.024,77.786 3.843,78.368 L2.771,81.82 C2.59,82.403 2.645,83.022 2.93,83.563 C3.214,84.104 3.693,84.501 4.275,84.682 L8.404,85.964 L8.34,86.858 C8.205,88.727 8.335,90.603 8.723,92.432 L8.9,93.268 L5.087,95.274 C4.547,95.558 4.15,96.037 3.969,96.62 C3.788,97.203 3.845,97.822 4.13,98.363 L5.811,101.562 C6.096,102.102 6.572,102.499 7.157,102.679 C7.744,102.864 8.357,102.805 8.9,102.52 L12.527,100.612 L12.527,100.612 Z M28.27,98.19 C27.281,98.19 26.291,98.041 25.32,97.739 C22.794,96.955 20.724,95.234 19.493,92.893 C18.26,90.552 18.015,87.871 18.798,85.344 C20.42,80.127 25.975,77.2 31.196,78.823 C33.722,79.607 35.791,81.329 37.023,83.67 C38.254,86.012 38.501,88.693 37.716,91.219 C36.932,93.746 35.209,95.815 32.868,97.047 C31.425,97.806 29.854,98.19 28.27,98.19 L28.27,98.19 Z M28.263,80.637 C25.002,80.637 21.973,82.74 20.956,86.015 C20.351,87.964 20.541,90.034 21.492,91.841 C22.443,93.648 24.04,94.976 25.991,95.582 C27.937,96.184 30.006,95.999 31.816,95.047 C33.625,94.097 34.953,92.499 35.558,90.549 C36.164,88.599 35.975,86.53 35.024,84.723 C34.073,82.916 32.475,81.586 30.525,80.981 C29.772,80.747 29.011,80.637 28.263,80.637 L28.263,80.637 Z" id="Fill-12" fill="#18A9E1"></path>
            </g>
        </g>
    </g>
</svg>