<?xml version="1.0" encoding="UTF-8" standalone="no"?>
<svg width="172px" height="112px" viewBox="0 0 172 112" version="1.1" xmlns="http://www.w3.org/2000/svg" xmlns:xlink="http://www.w3.org/1999/xlink" xmlns:sketch="http://www.bohemiancoding.com/sketch/ns">
    <!-- Generator: Sketch 3.3.3 (12081) - http://www.bohemiancoding.com/sketch -->
    <title>Fill 3</title>
    <desc>Created with Sketch.</desc>
    <defs></defs>
    <g id="Page-1" stroke="none" stroke-width="1" fill="none" fill-rule="evenodd" sketch:type="MSPage">
        <g id="learn" sketch:type="MSLayerGroup" transform="translate(-106.000000, -132.000000)" fill="#FFFFFF">
            <path d="M164.542,184.367 C147.476,177.303 132.47,176.656 118.703,182.377 L117.855,180.297 C132.197,174.356 147.781,175.009 165.422,182.291 L164.542,184.367 L164.542,184.367 Z M165.422,195.949 C147.808,188.682 132.197,188.008 117.855,193.958 L118.703,196.038 C132.512,190.338 147.505,190.991 164.542,198.029 L165.422,195.949 L165.422,195.949 Z M165.422,168.629 C147.808,161.367 132.197,160.697 117.855,166.624 L118.703,168.718 C132.512,162.997 147.505,163.647 164.542,170.715 L165.422,168.629 L165.422,168.629 Z M241.402,195.585 L248.24,188.731 L248.24,240.544 L189.678,240.544 C187.637,242.266 182.873,243.491 177.307,243.491 C171.744,243.491 166.987,242.266 164.973,240.544 L106.388,240.544 L106.388,148.698 C144.939,131.947 173.101,148.382 178.007,153.117 C181.428,149.943 206.33,135.278 238.767,145.211 L232.232,151.733 C227.73,150.432 222.709,149.634 217.367,149.634 C198.014,149.634 182.301,156.045 182.301,167.922 L182.301,234.817 C182.301,231.669 209.701,213.299 241.402,233.364 L241.402,195.585 L241.402,195.585 Z M172.779,167.922 C172.779,156.045 157.066,149.634 137.701,149.634 C128.405,149.634 119.954,151.839 113.698,155.46 L113.698,233.364 C145.344,213.299 172.779,231.669 172.779,234.817 L172.779,167.922 L172.779,167.922 Z M186.757,182.291 L187.598,184.367 C194.327,181.574 201.25,180.077 208.081,179.274 L209.057,176.906 C201.635,177.638 194.077,179.274 186.757,182.291 L186.757,182.291 Z M186.757,195.949 L187.598,198.029 C192.401,196.065 197.294,194.698 202.213,193.715 L203.176,191.32 C197.685,192.329 192.132,193.735 186.757,195.949 L186.757,195.949 Z M186.757,168.629 L187.598,170.715 C197.925,166.441 208.692,164.765 218.799,165.192 L220.918,163.062 C209.924,162.291 198.059,163.959 186.757,168.629 L186.757,168.629 Z M275.656,154.214 L234.048,195.795 L223.363,200.175 C220.899,201.131 217.462,202.564 214.515,203.75 C213.713,204.085 212.744,204.47 212.096,204.732 L207.017,206.809 C203.928,208.034 202.42,206.54 203.694,203.432 L205.725,198.385 C206.015,197.714 206.399,196.771 206.721,195.969 C207.94,193.022 209.327,189.555 210.309,187.121 L214.689,176.435 L256.26,134.835 C258.813,132.285 262.372,131.638 264.143,133.422 L277.062,146.342 C278.816,148.139 278.199,151.665 275.656,154.214 L275.656,154.214 Z M227.871,194.563 L215.921,182.58 L213.552,188.432 L212.165,191.839 L210.825,195.141 L215.336,199.656 L222.072,196.932 L227.871,194.563 L227.871,194.563 Z" id="Fill-3" sketch:type="MSShapeGroup"></path>
        </g>
    </g>
</svg>